# xmcd
#
# Track frame offsets: 
#        150
#        14122
#        30517
#        44832
#        56650
#        70117
#        83827
#        101390
#        115497
#        126125
#
# Disc length: 1838 seconds
#
# Revision: 0
# Processed by: cddbd v1.4PL0 Copyright (c) Steve Scherf et al.
# Submitted via: ExactAudioCopy v0.90b4
#
DISCID=89072c0a
DTITLE=Paulette Carlson - Christmas Is For You
DYEAR=1900
DGENRE=Country
TTITLE0=Christmas Is For You
TTITLE1=The First Noel
TTITLE2=Silver Bells
TTITLE3=Mrs. Santa Claus
TTITLE4=Sleigh Ride
TTITLE5=What Child Is This
TTITLE6=O Holy Night
TTITLE7=Have Yourself A Merry Christmas
TTITLE8=Winter Wonderland
TTITLE9=Let It Snow! Let It Snow!
EXTD=
EXTT0=
EXTT1=
EXTT2=
EXTT3=
EXTT4=
EXTT5=
EXTT6=
EXTT7=
EXTT8=
EXTT9=
PLAYORDER=
